<svg xmlns="http://www.w3.org/2000/svg" data-name="Layer 1" viewBox="50 50 550 412"><defs><clipPath id="a"><path fill="none" d="M409.69609,196.09163l-7.9209,119.25563a25.22148,25.22148,0,0,1-25.22149,25.22149h0a25.22148,25.22148,0,0,1-25.005-21.92392l-2.65338-20.12016H201.028l7.9209-102.433Z"/></clipPath></defs><path fill="#dbe8ec" d="M564.58343,226.17339V208.06371a13.02087,13.02087,0,0,0-13.02086-13.02087H505.60333A13.02087,13.02087,0,0,1,492.58247,182.022V163.91229a13.02087,13.02087,0,0,1,13.02086-13.02087h1.45112a13.02086,13.02086,0,0,0,13.02086-13.02086V119.76088A13.02087,13.02087,0,0,0,507.05445,106.74H173.13523a13.02087,13.02087,0,0,0-13.02087,13.02087v18.10968a13.02087,13.02087,0,0,0,13.02087,13.02086h0a13.02087,13.02087,0,0,1,13.02086,13.02087V182.022a13.02087,13.02087,0,0,1-13.02086,13.02087H122.7824a13.02087,13.02087,0,0,0-13.02087,13.02087v18.10968a13.02087,13.02087,0,0,0,13.02087,13.02086h19.75769A13.02087,13.02087,0,0,1,155.561,252.21512v18.10977a13.02086,13.02086,0,0,1-13.02086,13.02086h-.04775a13.02087,13.02087,0,0,0-13.02087,13.02087v18.1096a13.02087,13.02087,0,0,0,13.02087,13.02086h2.85852A13.02087,13.02087,0,0,1,158.37173,340.518v18.10977a13.02087,13.02087,0,0,1-13.02087,13.02086H98.43743a13.02087,13.02087,0,0,0-13.02086,13.02087v18.10968A13.02087,13.02087,0,0,0,98.43743,415.8H514.045a13.02087,13.02087,0,0,0,13.02087-13.02087V384.66945A13.02087,13.02087,0,0,0,514.045,371.64858H502.75526a13.02087,13.02087,0,0,1-13.02087-13.02086V340.518a13.02087,13.02087,0,0,1,13.02087-13.02087h26.62008a13.02087,13.02087,0,0,0,13.02087-13.02086v-18.1096a13.02087,13.02087,0,0,0-13.02087-13.02087h-8.07529a13.02087,13.02087,0,0,1-13.02087-13.02086V252.21512a13.02087,13.02087,0,0,1,13.02087-13.02087h30.26252A13.02086,13.02086,0,0,0,564.58343,226.17339Z"/><circle cx="325" cy="256" r="172.84" fill="#dbe8ec"/><path fill="#3086a3" d="M422.02476,396.49019H188.83289A4,4,0,0,1,184.837,392.31l9.63925-213.76a4,4,0,0,1,3.99594-3.8198H431.664a4,4,0,0,1,3.99594,4.18019l-9.63925,213.76A4,4,0,0,1,422.02476,396.49019Z"/><path fill="#25788e" d="M437.01967,178.55a3.99991,3.99991,0,0,0-3.99585-3.81982H431.664a4.0002,4.0002,0,0,1,3.99609,4.18018l-9.6394,213.76a3.99993,3.99993,0,0,1-3.99585,3.81982H462.663a4,4,0,0,0,3.996-4.18024Z"/><path fill="#409cb5" d="M408.96,383.53019H203.02432a3.53247,3.53247,0,0,1-3.52888-3.6916L208.008,191.06352a3.53246,3.53246,0,0,1,3.52888-3.37333H417.47258a3.53246,3.53246,0,0,1,3.52888,3.69159l-8.51258,188.77507A3.53248,3.53248,0,0,1,408.96,383.53019Z"/><path fill="#ee781d" d="M234.29 174.05161a1.42856 1.42856 0 01-.17.68h-2.66a1.42856 1.42856 0 01-.17-.68c0-4.78-2.57-8.82-5.61-8.82-3.04 0-5.6 4.04-5.6 8.82 0 .23.01.45.02.68.23 4.48 2.69 8.14 5.58 8.14a2.92566 2.92566 0 00.51-.04 1.50047 1.50047 0 01.43 2.97 5.95036 5.95036 0 01-.94.07c-4.57 0-8.33-4.94-8.59-11.14-.01-.23-.01-.45-.01-.68 0-6.52 3.86-11.82 8.6-11.82C230.43 162.2316 234.29 167.53159 234.29 174.05161zM264.53 174.05161a1.42856 1.42856 0 01-.17.68H261.7a1.42856 1.42856 0 01-.17-.68c0-4.78-2.57-8.82-5.61-8.82s-5.61 4.04-5.61 8.82c0 .23.01.45.02.68.23 4.48 2.7 8.14 5.59 8.14a2.92566 2.92566 0 00.51-.04 1.50047 1.50047 0 11.43 2.97 5.95036 5.95036 0 01-.94.07c-4.58 0-8.34-4.94-8.6-11.14-.01-.23-.01-.45-.01-.68 0-6.52 3.86-11.82 8.61-11.82C260.66 162.2316 264.53 167.53159 264.53 174.05161zM294.76 174.05161a1.42856 1.42856 0 01-.17.68h-2.66a1.4286 1.4286 0 01-.17-.68c0-4.78-2.57-8.82-5.6-8.82-3.04 0-5.61 4.04-5.61 8.82 0 .23.01.45.02.68.23 4.48 2.7 8.14 5.59 8.14a2.88823 2.88823 0 00.5-.04 1.5012 1.5012 0 01.44 2.97 6.13062 6.13062 0 01-.94.07c-4.58 0-8.34-4.94-8.6-11.14-.01-.23-.01-.45-.01-.68 0-6.52 3.86-11.82 8.61-11.82C290.9 162.2316 294.76 167.53159 294.76 174.05161zM325 174.05161a1.42791 1.42791 0 01-.17.68h-2.66a1.42856 1.42856 0 01-.17-.68c0-4.78-2.57-8.82-5.61005-8.82-3.04 0-5.61 4.04-5.61 8.82 0 .23.01.45.02.68.23 4.48 2.7 8.14 5.59 8.14a2.92475 2.92475 0 00.51-.04 1.50047 1.50047 0 11.43 2.97 5.95036 5.95036 0 01-.94.07c-4.56994 0-8.34-4.94-8.6-11.14-.01-.23-.01-.45-.01-.68 0-6.52 3.87-11.82 8.61-11.82C321.14 162.2316 325 167.53159 325 174.05161zM355.23 174.05161a1.42856 1.42856 0 01-.17.68H352.4a1.42856 1.42856 0 01-.17-.68c0-4.78-2.56-8.82-5.6-8.82s-5.61 4.04-5.61 8.82c0 .23.01.45.02.68.24 4.74 3.02 8.55 6.09 8.1a1.5012 1.5012 0 11.44 2.97 6.0395 6.0395 0 01-.94.07c-4.58 0-8.34-4.94-8.6-11.14-.01-.23-.01-.45-.01-.68 0-6.52 3.86-11.82 8.61-11.82C351.37 162.2316 355.23 167.53159 355.23 174.05161zM385.47 174.05161a1.42856 1.42856 0 01-.17.68h-2.66a1.42856 1.42856 0 01-.17-.68c0-4.78-2.57-8.82-5.61-8.82s-5.6 4.04-5.6 8.82c0 .23.01.45.02.68.23 4.48 2.69 8.14 5.58 8.14a2.92581 2.92581 0 00.51-.04 1.50047 1.50047 0 11.43 2.97 5.95032 5.95032 0 01-.94.07c-4.57 0-8.33-4.94-8.59-11.14-.01-.23-.01-.45-.01-.68 0-6.52 3.86005-11.82 8.6-11.82C381.61 162.2316 385.47 167.53159 385.47 174.05161zM413.5 174.05161a1.42791 1.42791 0 01-.17.68h-2.66a1.42856 1.42856 0 01-.17-.68c0-4.78-2.57-8.82-5.61005-8.82-3.04 0-5.61 4.04-5.61 8.82 0 .23.01.45.02.68.23 4.48 2.7 8.14 5.59 8.14a2.92475 2.92475 0 00.51-.04 1.50047 1.50047 0 11.43 2.97 6.0395 6.0395 0 01-.94.07c-4.57995 0-8.34-4.94-8.6-11.14-.01-.23-.01-.45-.01-.68 0-6.52 3.86-11.82 8.61-11.82C409.63 162.2316 413.5 167.53159 413.5 174.05161z"/><path fill="#25788e" d="M441.22,368.37162h-3.33v-.12Q439.54,368.37165,441.22,368.37162Z"/><path fill="#409cb5" d="M409.69609,196.09163l-7.9209,119.25563a25.22148,25.22148,0,0,1-25.22149,25.22149h0a25.22148,25.22148,0,0,1-25.005-21.92392l-2.65338-20.12016H201.028l7.9209-102.433Z"/><path fill="#25788e" d="M194.48489,340.56875h-.00005a25.2215,25.2215,0,0,1-25.005-21.92392l-2.65337-20.12016H348.89528l2.65338,20.12016a25.22148,25.22148,0,0,0,25.005,21.92392H194.48489Z"/><g clip-path="url(#a)"><path fill="#dbe8ec" d="M261.02968 241.09H225.01241a2.85485 2.85485 0 01-2.85195-2.98346L223.6332 205.447a2.85485 2.85485 0 012.852-2.72625h36.01727a2.85485 2.85485 0 012.85195 2.98346l-1.47274 32.65953A2.85485 2.85485 0 01261.02968 241.09zM306.501 241.09H270.48377a2.85486 2.85486 0 01-2.852-2.98346l1.47275-32.65953a2.85484 2.85484 0 012.85195-2.72625h36.01727a2.85486 2.85486 0 012.852 2.98346L309.353 238.3637A2.85486 2.85486 0 01306.501 241.09zM351.9724 241.09H315.95513a2.85485 2.85485 0 01-2.852-2.98346l1.47274-32.65953a2.85485 2.85485 0 012.852-2.72625h36.01727a2.85485 2.85485 0 012.852 2.98346l-1.47274 32.65953A2.85484 2.85484 0 01351.9724 241.09zM397.44375 241.09H361.42648a2.85486 2.85486 0 01-2.852-2.98346l1.47275-32.65953a2.85484 2.85484 0 012.85195-2.72625h36.01727a2.85486 2.85486 0 012.852 2.98346l-1.47274 32.65953A2.85486 2.85486 0 01397.44375 241.09zM258.97665 283.57019H222.95938a2.85485 2.85485 0 01-2.852-2.98346l1.47274-32.65954a2.85485 2.85485 0 012.85195-2.72625h36.01727a2.85486 2.85486 0 012.852 2.98346l-1.47274 32.65954A2.85487 2.85487 0 01258.97665 283.57019zM304.448 283.57019H268.43074a2.85486 2.85486 0 01-2.852-2.98346l1.47274-32.65954a2.85487 2.85487 0 012.852-2.72625h36.01727a2.85486 2.85486 0 012.852 2.98346L307.3 280.84394A2.85485 2.85485 0 01304.448 283.57019zM349.91936 283.57019H313.90209a2.85486 2.85486 0 01-2.85195-2.98346l1.47274-32.65954a2.85485 2.85485 0 012.85195-2.72625H351.3921a2.85485 2.85485 0 012.852 2.98346l-1.47274 32.65954A2.85486 2.85486 0 01349.91936 283.57019zM395.39072 283.57019H359.37345a2.85486 2.85486 0 01-2.852-2.98346l1.47274-32.65954a2.85487 2.85487 0 012.852-2.72625h36.01727a2.85486 2.85486 0 012.852 2.98346l-1.47275 32.65954A2.85485 2.85485 0 01395.39072 283.57019zM257.59767 326.05042H221.5804a2.85485 2.85485 0 01-2.85195-2.98346l1.47274-32.65954a2.85485 2.85485 0 012.852-2.72624h36.01727a2.85485 2.85485 0 012.85195 2.98346l-1.47274 32.65953A2.85485 2.85485 0 01257.59767 326.05042zM303.069 326.05042H267.05176a2.85486 2.85486 0 01-2.852-2.98346l1.47275-32.65954a2.85484 2.85484 0 012.85195-2.72624h36.01727a2.85486 2.85486 0 012.852 2.98346L305.921 323.32417A2.85487 2.85487 0 01303.069 326.05042zM348.54038 326.05042H312.52311a2.85485 2.85485 0 01-2.85195-2.98346l1.47274-32.65954a2.85485 2.85485 0 012.852-2.72624h36.01727a2.85485 2.85485 0 012.85195 2.98346l-1.47274 32.65953A2.85485 2.85485 0 01348.54038 326.05042zM394.01174 326.05042H357.99447a2.85486 2.85486 0 01-2.852-2.98346l1.47275-32.65954a2.85484 2.85484 0 012.852-2.72624h36.01727a2.85486 2.85486 0 012.852 2.98346l-1.47274 32.65953A2.85487 2.85487 0 01394.01174 326.05042zM255.95214 368.37162H219.93487a2.85486 2.85486 0 01-2.852-2.98346l1.47275-32.65954a2.85485 2.85485 0 012.852-2.72625h36.01727a2.85486 2.85486 0 012.852 2.98346l-1.47274 32.65954A2.85487 2.85487 0 01255.95214 368.37162zM301.4235 368.37162H265.40623a2.85486 2.85486 0 01-2.852-2.98346l1.47274-32.65954a2.85487 2.85487 0 012.852-2.72625h36.01727a2.85486 2.85486 0 012.852 2.98346l-1.47275 32.65954A2.85485 2.85485 0 01301.4235 368.37162zM346.89485 368.37162H310.87758a2.85485 2.85485 0 01-2.852-2.98346l1.47274-32.65954a2.85485 2.85485 0 012.85195-2.72625h36.01727a2.85485 2.85485 0 012.852 2.98346l-1.47274 32.65954A2.85486 2.85486 0 01346.89485 368.37162zM392.36621 368.37162H356.34894a2.85486 2.85486 0 01-2.852-2.98346l1.47274-32.65954a2.85487 2.85487 0 012.852-2.72625H393.839a2.85486 2.85486 0 012.852 2.98346l-1.47275 32.65954A2.85485 2.85485 0 01392.36621 368.37162z"/><line x1="321.205" x2="348.681" y1="208.875" y2="234.616" fill="none" stroke="#ee781d" stroke-linecap="round" stroke-miterlimit="10" stroke-width="3"/><line x1="349.386" x2="320.5" y1="209.672" y2="233.819" fill="none" stroke="#ee781d" stroke-linecap="round" stroke-miterlimit="10" stroke-width="3"/><line x1="227.967" x2="255.442" y1="251.545" y2="277.285" fill="none" stroke="#ee781d" stroke-linecap="round" stroke-miterlimit="10" stroke-width="3"/><line x1="256.147" x2="227.262" y1="252.341" y2="276.489" fill="none" stroke="#ee781d" stroke-linecap="round" stroke-miterlimit="10" stroke-width="3"/></g><path fill="#d62828" d="M487.74738,388.48769H403.36255a2.55191,2.55191,0,0,1-2.2825-3.69315l42.19242-109.90388a2.55191,2.55191,0,0,1,4.565,0l42.19241,109.90388A2.5519,2.5519,0,0,1,487.74738,388.48769Z"/><rect width="121.943" height="19.732" x="384.584" y="376.965" fill="#f9ae2b" rx="7.732"/><polygon fill="#f9ae2b" points="428.031 314.591 415.558 347.083 475.552 347.083 463.079 314.591 428.031 314.591"/><line x1="390.365" x2="422.668" y1="94.722" y2="94.722" fill="none" stroke="#3086a3" stroke-linecap="round" stroke-miterlimit="10" stroke-width="3"/><line x1="390.365" x2="422.668" y1="104.032" y2="104.032" fill="none" stroke="#3086a3" stroke-linecap="round" stroke-miterlimit="10" stroke-width="3"/><line x1="390.365" x2="422.668" y1="113.343" y2="113.343" fill="none" stroke="#3086a3" stroke-linecap="round" stroke-miterlimit="10" stroke-width="3"/><line x1="124.744" x2="157.047" y1="292.47" y2="292.47" fill="none" stroke="#3086a3" stroke-linecap="round" stroke-miterlimit="10" stroke-width="3"/><line x1="124.744" x2="157.047" y1="301.781" y2="301.781" fill="none" stroke="#3086a3" stroke-linecap="round" stroke-miterlimit="10" stroke-width="3"/><line x1="124.744" x2="157.047" y1="311.091" y2="311.091" fill="none" stroke="#3086a3" stroke-linecap="round" stroke-miterlimit="10" stroke-width="3"/><circle cx="520.303" cy="254.45" r="13.807" fill="#b9d4db"/><circle cx="483.867" cy="264.415" r="7.159" fill="#b9d4db"/><circle cx="502.046" cy="220.665" r="10.228" fill="#b9d4db"/><circle cx="170.718" cy="409.151" r="16.428" fill="#b9d4db"/><circle cx="137.248" cy="410.604" r="8.557" fill="#b9d4db"/><circle cx="133.154" cy="380.753" r="4.936" fill="#b9d4db"/><circle cx="159.68" cy="373.324" r="11.833" fill="#b9d4db"/><circle cx="241.848" cy="113.343" r="35.702" fill="#409cb5"/><rect width="3.719" height="33.024" x="239.988" y="89.941" fill="#f9ae2b" rx="1.859"/><path fill="#f9ae2b" d="M241.84787,136.74472c4.48684,0,4.49427-6.97307,0-6.97307-4.48683,0-4.49427,6.97307,0,6.97307Z"/></svg>